<?xml version="1.0" encoding="UTF-8" standalone="no"?>
<!-- Created with Inkscape (http://www.inkscape.org/) -->

<svg
   width="100mm"
   height="100mm"
   viewBox="0 0 100 100"
   version="1.1"
   id="svg1"
   inkscape:export-filename="bitmap.png"
   inkscape:export-xdpi="96"
   inkscape:export-ydpi="96"
   inkscape:version="1.4 (e7c3feb100, 2024-10-09)"
   sodipodi:docname="favicon.svg"
   xmlns:inkscape="http://www.inkscape.org/namespaces/inkscape"
   xmlns:sodipodi="http://sodipodi.sourceforge.net/DTD/sodipodi-0.dtd"
   xmlns="http://www.w3.org/2000/svg"
   xmlns:svg="http://www.w3.org/2000/svg">
  <sodipodi:namedview
     id="namedview1"
     pagecolor="#ffffff"
     bordercolor="#000000"
     borderopacity="0.25"
     inkscape:showpageshadow="2"
     inkscape:pageopacity="0.0"
     inkscape:pagecheckerboard="0"
     inkscape:deskcolor="#d1d1d1"
     inkscape:document-units="mm"
     inkscape:zoom="1.562773"
     inkscape:cx="117.09954"
     inkscape:cy="187.16729"
     inkscape:window-width="1584"
     inkscape:window-height="855"
     inkscape:window-x="12"
     inkscape:window-y="10"
     inkscape:window-maximized="0"
     inkscape:current-layer="layer1" />
  <defs
     id="defs1" />
  <g
     inkscape:label="Layer 1"
     inkscape:groupmode="layer"
     id="layer1">
    <circle
       style="fill:#8b3d2f;fill-opacity:1;stroke-width:3.87;stroke-dasharray:none"
       id="path2"
       cx="50"
       cy="50"
       r="50" />
    <g
       id="g1"
       transform="matrix(0.23875108,0,0,0.23875108,21.252867,18.875813)">
      <path
         d="m 246.3759,104.16577 -3.552,-3.552 c -10.469,-10.468998 -23.292,-17.932998 -37.43,-21.845998 9.068,-13.706 15.784,-28.7 20.002,-44.673 0.671,-2.547 -0.068,-5.286 -1.932,-7.148 -1.861,-1.862 -4.6,-2.602 -7.15,-1.93 -15.969,4.215 -30.964,10.933 -44.671,20.001 -3.914,-14.138 -11.378,-26.961 -21.846,-37.4300002 l -3.115,-3.116 c -2.025,-2.024 -5.059,-2.657 -7.722,-1.612 -2.666,1.044 -4.46,3.568 -4.57,6.429 l -1.732,44.9270002 c -30.872,-14.526 -64.240999,-12.243 -91.481999,14.997 -38.7199998,38.719998 -66.73,143.610008 -35.0499998,175.280008 32.0199998,32.02 136.5599988,3.67 175.2799988,-35.05 27.301,-27.311 29.53,-60.76 14.898,-91.695 l 45.436,-1.75 c 2.754,-0.106 5.183,-1.832 6.188,-4.397 1.005,-2.56501 0.397,-5.48301 -1.552,-7.43501 z m -65.386,4.165 c -10.4,0.384 -20.595,-3.591 -27.956,-10.952998 -7.362,-7.363 -11.355,-17.553 -10.954,-27.957 l 2.055,-53.316 c 10.05,10.596 16.736,23.744 19.38,38.151 0.312,1.695 1.473,3.11 3.074,3.745 1.602,0.636 3.418,0.401 4.805,-0.619 13.099,-9.628 27.58,-16.839 43.105,-21.47 -4.632,15.527 -11.843,30.01 -21.469,43.105 -1.021,1.388 -1.255,3.204 -0.619,4.806 0.636,1.602 2.051,2.763 3.745,3.074 14.407,2.643 27.555,9.329 38.15,19.377998 z"
         id="path1"
         style="fill:#fdf8e7;fill-opacity:1"
         sodipodi:nodetypes="cscccccccccccccccsccssccccccsccc" />
    </g>
  </g>
</svg>
